<?xml version="1.0" standalone="no"?>
<!DOCTYPE svg PUBLIC "-//W3C//DTD SVG 20010904//EN"
 "http://www.w3.org/TR/2001/REC-SVG-20010904/DTD/svg10.dtd">
<svg version="1.0" xmlns="http://www.w3.org/2000/svg"
 width="3000.000000pt" height="2000.000000pt" viewBox="0 0 3000.000000 2000.000000"
 preserveAspectRatio="xMidYMid meet">

<g transform="translate(0.000000,2000.000000) scale(0.100000,-0.100000)"
fill="#000000" stroke="none">
<path d="M9845 16091 c-606 -320 -3238 -2119 -5505 -3761 -1751 -1269 -2995
-2229 -3581 -2766 -213 -195 -329 -334 -329 -394 0 -178 1151 -896 3325 -2072
2423 -1312 5811 -3000 6456 -3218 53 -18 104 -30 113 -27 23 9 33 40 50 159
63 431 74 2104 27 4053 -5 198 -8 361 -7 362 1 2 139 -11 307 -27 1665 -165
3789 -355 5094 -455 1266 -97 1829 -129 2955 -170 4536 -165 8805 -285 10151
-285 l406 0 11 72 c63 403 165 1926 228 3388 29 694 29 1708 0 1738 -12 11
-545 6 -786 -7 -2350 -131 -8474 -652 -17278 -1472 -596 -55 -1085 -99 -1086
-97 -5 5 -65 1069 -96 1683 -36 730 -37 758 -55 1310 -40 1224 -88 1727 -186
1955 -22 52 -59 90 -88 90 -9 0 -65 -27 -126 -59z"/>
</g>
</svg>
